<svg width="54" height="54" viewBox="0 0 54 54" fill="none" xmlns="http://www.w3.org/2000/svg">
<path d="M36 15C36 15.7956 35.6839 16.5587 35.1213 17.1213C34.5587 17.6839 33.7956 18 33 18H21C20.2044 18 19.4413 17.6839 18.8787 17.1213C18.3161 16.5587 18 15.7956 18 15V3C18 2.20435 18.3161 1.44129 18.8787 0.87868C19.4413 0.316071 20.2044 0 21 0L33 0C33.7956 0 34.5587 0.316071 35.1213 0.87868C35.6839 1.44129 36 2.20435 36 3V15ZM0 21V51C0 51.7956 0.316071 52.5587 0.87868 53.1213C1.44129 53.6839 2.20435 54 3 54H51C51.7956 54 52.5587 53.6839 53.1213 53.1213C53.6839 52.5587 54 51.7956 54 51V21H0Z" fill="#CCD6DD"/>
<path d="M27 18H3C2.20435 18 1.44129 18.3161 0.87868 18.8787C0.316071 19.4413 0 20.2044 0 21H30C30 20.2044 29.6839 19.4413 29.1213 18.8787C28.5587 18.3161 27.7956 18 27 18Z" fill="#99AAB5"/>
<path d="M51 18H27C26.2044 18 25.4413 18.3161 24.8787 18.8787C24.3161 19.4413 24 20.2044 24 21H54C54 20.2044 53.6839 19.4413 53.1213 18.8787C52.5587 18.3161 51.7956 18 51 18Z" fill="#99AAB5"/>
<path d="M3 33H51V39H3V33ZM3 24H51V30H3V24ZM3 42H51V48H3V42Z" fill="#55ACEE"/>
<path d="M12 18H42V54H12V18Z" fill="#E1E8ED"/>
<path d="M15 30H39V36H15V30ZM15 21H39V27H15V21ZM15 39H39V45H15V39Z" fill="#55ACEE"/>
<path d="M19.5 48H34.5V54H19.5V48Z" fill="#3B88C3"/>
<path d="M33 6H28.5V1.5H25.5V6H21V9H25.5V13.5H28.5V9H33V6Z" fill="#DD2E44"/>
<path d="M39 15H15C14.2044 15 13.4413 15.3161 12.8787 15.8787C12.3161 16.4413 12 17.2044 12 18H42C42 17.2044 41.6839 16.4413 41.1213 15.8787C40.5587 15.3161 39.7956 15 39 15Z" fill="#99AAB5"/>
</svg>
